<svg width="22" height="19" viewBox="0 0 22 19" fill="none" xmlns="http://www.w3.org/2000/svg">
<g id="material-symbols:folder-managed-outline">
<path id="Vector" d="M15.575 18.5L15.275 17C15.075 16.9167 14.8876 16.8293 14.713 16.738C14.5383 16.6467 14.359 16.534 14.175 16.4L12.725 16.85L11.725 15.15L12.875 14.15C12.8416 13.95 12.825 13.7333 12.825 13.5C12.825 13.2667 12.8416 13.05 12.875 12.85L11.725 11.85L12.725 10.15L14.175 10.6C14.3583 10.4667 14.5376 10.3543 14.713 10.263C14.8883 10.1717 15.0756 10.084 15.275 10L15.575 8.5H17.575L17.875 10C18.075 10.0833 18.2626 10.171 18.438 10.263C18.6133 10.355 18.7923 10.4673 18.975 10.6L20.425 10.15L21.425 11.85L20.275 12.85C20.3083 13.05 20.325 13.2667 20.325 13.5C20.325 13.7333 20.3083 13.95 20.275 14.15L21.425 15.15L20.425 16.85L18.975 16.4C18.7916 16.5333 18.6126 16.646 18.438 16.738C18.2633 16.83 18.0756 16.9173 17.875 17L17.575 18.5H15.575ZM16.575 15.5C17.125 15.5 17.596 15.3043 17.988 14.913C18.38 14.5217 18.5756 14.0507 18.575 13.5C18.575 12.95 18.3793 12.4793 17.988 12.088C17.5966 11.6967 17.1256 11.5007 16.575 11.5C16.025 11.5 15.5543 11.696 15.163 12.088C14.7716 12.48 14.5756 12.9507 14.575 13.5C14.575 14.05 14.771 14.521 15.163 14.913C15.555 15.305 16.0256 15.5007 16.575 15.5ZM2.57495 14.5V2.5V6.8V6.5V14.5ZM2.57495 16.5C2.02495 16.5 1.55428 16.3043 1.16295 15.913C0.771618 15.5217 0.575618 15.0507 0.574951 14.5V2.5C0.574951 1.95 0.770951 1.47933 1.16295 1.088C1.55495 0.696666 2.02562 0.500667 2.57495 0.5H8.57495L10.575 2.5H18.575C19.125 2.5 19.596 2.696 19.988 3.088C20.38 3.48 20.5756 3.95067 20.575 4.5V7.775C20.275 7.55833 19.9583 7.371 19.625 7.213C19.2916 7.055 18.9416 6.91733 18.575 6.8V4.5H9.74995L7.74995 2.5H2.57495V14.5H9.64995C9.69995 14.85 9.77928 15.1917 9.88795 15.525C9.99662 15.8583 10.1256 16.1833 10.275 16.5H2.57495Z" fill="black"/>
</g>
</svg>
